<svg width="135" height="135" viewBox="0 0 135 135" fill="none" xmlns="http://www.w3.org/2000/svg">
<path d="M29.5312 0C30.6501 0 31.7232 0.444474 32.5144 1.23564C33.3055 2.02681 33.75 3.09987 33.75 4.21875V8.4375H101.25V4.21875C101.25 3.09987 101.694 2.02681 102.486 1.23564C103.277 0.444474 104.35 0 105.469 0C106.588 0 107.661 0.444474 108.452 1.23564C109.243 2.02681 109.688 3.09987 109.688 4.21875V8.4375H118.125C122.601 8.4375 126.893 10.2154 130.057 13.3801C133.222 16.5448 135 20.837 135 25.3125V118.125C135 122.601 133.222 126.893 130.057 130.057C126.893 133.222 122.601 135 118.125 135H16.875C12.3995 135 8.10725 133.222 4.94257 130.057C1.7779 126.893 0 122.601 0 118.125V25.3125C0 20.837 1.7779 16.5448 4.94257 13.3801C8.10725 10.2154 12.3995 8.4375 16.875 8.4375H25.3125V4.21875C25.3125 3.09987 25.757 2.02681 26.5481 1.23564C27.3393 0.444474 28.4124 0 29.5312 0V0ZM8.4375 33.75V118.125C8.4375 120.363 9.32645 122.509 10.9088 124.091C12.4911 125.674 14.6372 126.562 16.875 126.562H118.125C120.363 126.562 122.509 125.674 124.091 124.091C125.674 122.509 126.562 120.363 126.562 118.125V33.75H8.4375Z" fill="url(#paint0_linear_14_80)"/>
<defs>
<linearGradient id="paint0_linear_14_80" x1="135" y1="135" x2="0" y2="0" gradientUnits="userSpaceOnUse">
<stop stop-color="#C084FC"/>
<stop offset="1" stop-color="#A5B4FC"/>
</linearGradient>
</defs>
</svg>
