<svg width="14" height="14" viewBox="0 0 14 14" fill="none" xmlns="http://www.w3.org/2000/svg">
<path fill-rule="evenodd" clip-rule="evenodd" d="M13.364 0.636025C13.7545 1.02655 13.7545 1.65971 13.364 2.05024L8.41421 6.99999L13.364 11.9497C13.7545 12.3403 13.7545 12.9734 13.364 13.3639C12.9734 13.7545 12.3403 13.7545 11.9497 13.3639L7 8.4142L2.05025 13.3639C1.65973 13.7545 1.02656 13.7545 0.636039 13.3639C0.245515 12.9734 0.245515 12.3403 0.636039 11.9497L5.58579 6.99999L0.636039 2.05024C0.245515 1.65971 0.245514 1.02655 0.636039 0.636025C1.02656 0.245501 1.65973 0.245501 2.05025 0.636025L7 5.58577L11.9497 0.636025C12.3403 0.245501 12.9734 0.245501 13.364 0.636025Z" fill="#161616"/>
</svg>
