<svg width="134" height="135" viewBox="0 0 134 135" fill="none" xmlns="http://www.w3.org/2000/svg">
<path fill-rule="evenodd" clip-rule="evenodd" d="M54.4475 4.97496C57.8401 1.78011 62.3315 0 67 0C71.6685 0 76.1599 1.78011 79.5525 4.97496C79.5528 4.97522 79.5523 4.9747 79.5525 4.97496L124.46 47.2546C127.473 50.0906 129.874 53.5097 131.514 57.3023C133.154 61.0947 134 65.1808 134 69.3103C134 69.3105 134 69.3101 134 69.3103V116.797C134 121.625 132.075 126.255 128.648 129.668C125.221 133.082 120.574 135 115.727 135H18.2727C13.4265 135 8.77876 133.082 5.35196 129.668C1.92516 126.255 1.10364e-07 121.625 1.10364e-07 116.797V69.3109C1.10364e-07 69.3107 1.10364e-07 69.3111 1.10364e-07 69.3109C-0.000352771 65.1814 0.845529 61.0947 2.48584 57.3023C4.1261 53.51 6.52622 50.0912 9.53919 47.2552M9.53919 47.2552L54.4475 4.97496C54.4477 4.9747 54.4472 4.97522 54.4475 4.97496M67 12.1355C65.4437 12.1355 63.9464 12.729 62.8155 13.7941L17.9064 56.0752C16.0985 57.7768 14.6576 59.8289 13.6733 62.1045C12.6891 64.38 12.1816 66.8318 12.1818 69.3096V116.797C12.1818 118.406 12.8235 119.949 13.9658 121.087C15.1081 122.225 16.6573 122.864 18.2727 122.864H115.727C117.343 122.864 118.892 122.225 120.034 121.087C121.176 119.949 121.818 118.406 121.818 116.797V69.3103C121.818 66.8325 121.311 64.38 120.327 62.1045C119.342 59.8289 117.902 57.7775 116.094 56.0758L71.1853 13.7949C70.0544 12.7298 68.5563 12.1355 67 12.1355Z" fill="black"/>
<path fill-rule="evenodd" clip-rule="evenodd" d="M54.4475 4.97496C57.8401 1.78011 62.3315 0 67 0C71.6685 0 76.1599 1.78011 79.5525 4.97496C79.5528 4.97522 79.5523 4.9747 79.5525 4.97496L124.46 47.2546C127.473 50.0906 129.874 53.5097 131.514 57.3023C133.154 61.0947 134 65.1808 134 69.3103C134 69.3105 134 69.3101 134 69.3103V116.797C134 121.625 132.075 126.255 128.648 129.668C125.221 133.082 120.574 135 115.727 135H18.2727C13.4265 135 8.77876 133.082 5.35196 129.668C1.92516 126.255 1.10364e-07 121.625 1.10364e-07 116.797V69.3109C1.10364e-07 69.3107 1.10364e-07 69.3111 1.10364e-07 69.3109C-0.000352771 65.1814 0.845529 61.0947 2.48584 57.3023C4.1261 53.51 6.52622 50.0912 9.53919 47.2552M9.53919 47.2552L54.4475 4.97496C54.4477 4.9747 54.4472 4.97522 54.4475 4.97496M67 12.1355C65.4437 12.1355 63.9464 12.729 62.8155 13.7941L17.9064 56.0752C16.0985 57.7768 14.6576 59.8289 13.6733 62.1045C12.6891 64.38 12.1816 66.8318 12.1818 69.3096V116.797C12.1818 118.406 12.8235 119.949 13.9658 121.087C15.1081 122.225 16.6573 122.864 18.2727 122.864H115.727C117.343 122.864 118.892 122.225 120.034 121.087C121.176 119.949 121.818 118.406 121.818 116.797V69.3103C121.818 66.8325 121.311 64.38 120.327 62.1045C119.342 59.8289 117.902 57.7775 116.094 56.0758L71.1853 13.7949C70.0544 12.7298 68.5563 12.1355 67 12.1355Z" fill="url(#paint0_linear_12_67)"/>
<defs>
<linearGradient id="paint0_linear_12_67" x1="134" y1="135" x2="-0.996269" y2="1.0037" gradientUnits="userSpaceOnUse">
<stop stop-color="#C084FC"/>
<stop offset="1" stop-color="#A5B4FC"/>
</linearGradient>
</defs>
</svg>
