<svg width="54" height="11" viewBox="0 0 54 11" fill="none" xmlns="http://www.w3.org/2000/svg">
<path d="M7.17602 8.90801C7.23602 8.84801 7.26002 8.77601 7.26002 8.66801V5.21201C7.26002 5.08001 7.18802 5.00801 7.05602 5.00801H4.14002C4.00802 5.00801 3.93602 5.08001 3.93602 5.21201V6.38801C3.93602 6.53201 4.00802 6.60401 4.14002 6.60401H5.42402V7.98401C5.08802 8.18801 4.60802 8.32001 4.09202 8.32001C3.18002 8.32001 2.58002 7.85201 2.58002 6.89201V4.50401C2.58002 3.58001 3.15602 3.088 4.06802 3.088C4.77602 3.088 5.41202 3.24401 5.92802 3.54401C6.03602 3.61601 6.13202 3.61601 6.21602 3.496L7.02002 2.34401C7.09202 2.23601 7.08002 2.12801 6.96002 2.04401C6.16802 1.55201 5.10002 1.264 4.08002 1.264C2.04002 1.264 0.624023 2.36801 0.624023 4.44401V6.95201C0.624023 9.04001 2.05202 10.156 4.09202 10.156C5.34002 10.156 6.44402 9.65201 7.17602 8.90801Z" fill="url(#paint0_radial_13_77)"/>
<path d="M8.4993 4.25201C8.4153 4.31201 8.41531 4.39601 8.47531 4.51601L8.96731 5.45201C9.02731 5.57201 9.14731 5.58401 9.25531 5.52401C9.60331 5.33201 10.2273 5.18801 10.7553 5.18801C11.5353 5.18801 11.7633 5.53601 11.7633 6.17201V6.29201C11.4633 6.25601 11.1153 6.22001 10.7433 6.22001C9.11131 6.22001 8.1273 6.84401 8.1273 8.09201C8.1273 9.50801 9.2193 10.156 10.9473 10.156C11.7633 10.156 12.7113 10.024 13.4193 9.80801C13.5393 9.77201 13.5993 9.68801 13.5993 9.56801V6.28001C13.5993 4.45601 12.6273 3.59201 10.9713 3.59201C9.9393 3.59201 9.0633 3.89201 8.4993 4.25201ZM9.9873 8.04401C9.9873 7.66001 10.2753 7.44401 10.9353 7.44401C11.1993 7.44401 11.5233 7.46801 11.7633 7.51601V8.57201C11.5473 8.62001 11.2233 8.66801 10.9473 8.66801C10.3713 8.66801 9.9873 8.46401 9.9873 8.04401Z" fill="url(#paint1_radial_13_77)"/>
<path d="M16.4954 10C16.6274 10 16.6994 9.92801 16.6994 9.78401V3.96401C16.6994 3.83201 16.6274 3.76 16.4954 3.76H15.0794C14.9474 3.76 14.8634 3.83201 14.8634 3.96401V9.78401C14.8634 9.92801 14.9474 10 15.0794 10H16.4954ZM16.7954 1.88801C16.7954 1.30001 16.3874 0.880005 15.7874 0.880005C15.1994 0.880005 14.7674 1.30001 14.7674 1.88801C14.7674 2.45201 15.1994 2.89601 15.7874 2.89601C16.3874 2.89601 16.7954 2.45201 16.7954 1.88801Z" fill="url(#paint2_radial_13_77)"/>
<path d="M19.6472 10.012C19.7792 10.012 19.8512 9.92801 19.8512 9.79601V5.33201C20.0432 5.27201 20.3552 5.22401 20.6912 5.22401C21.3272 5.22401 21.6992 5.50001 21.6992 6.37601V9.79601C21.6992 9.92801 21.7712 10.012 21.9152 10.012H23.3312C23.4752 10.012 23.5472 9.92801 23.5472 9.79601V6.37601C23.5472 4.57601 22.5152 3.59201 20.6912 3.59201C19.8392 3.59201 18.9032 3.78401 18.1712 4.08401C18.0632 4.13201 18.0152 4.21601 18.0152 4.336V9.79601C18.0152 9.92801 18.0872 10.012 18.2312 10.012H19.6472Z" fill="url(#paint3_radial_13_77)"/>
<path d="M25.8324 10C25.8924 10 25.9404 9.96401 25.9404 9.90401V5.50001C25.9404 4.61201 25.9164 3.40001 25.9044 2.51201L25.9164 2.50001C26.1564 2.92001 26.4444 3.41201 26.7084 3.82001L30.6924 9.94001C30.7164 9.97601 30.7644 10 30.8124 10H31.3404C31.4004 10 31.4364 9.96401 31.4364 9.90401V1.51601C31.4364 1.45601 31.4004 1.42001 31.3404 1.42001H30.8844C30.8244 1.42001 30.7764 1.45601 30.7764 1.51601V5.75201C30.7764 6.74801 30.8004 7.94801 30.8244 8.94401L30.8004 8.98001C30.5484 8.53601 30.2484 8.05601 29.9724 7.61201L26.0244 1.49201C26.0004 1.44401 25.9524 1.42001 25.9044 1.42001H25.3764C25.3164 1.42001 25.2804 1.45601 25.2804 1.51601V9.90401C25.2804 9.96401 25.3164 10 25.3764 10H25.8324Z" fill="url(#paint4_radial_13_77)"/>
<path d="M38.3384 7.82801V6.00401C38.3384 4.68401 37.4144 3.68801 35.7824 3.68801C34.1624 3.68801 33.2264 4.68401 33.2264 6.00401V7.82801C33.2264 9.16001 34.1624 10.132 35.7824 10.132C37.4144 10.132 38.3384 9.16001 38.3384 7.82801ZM33.8744 7.82801V6.00401C33.8744 5.00801 34.5224 4.27601 35.7824 4.27601C37.0664 4.27601 37.7024 5.00801 37.7024 6.00401V7.82801C37.7024 8.82401 37.0664 9.55601 35.7824 9.55601C34.5224 9.55601 33.8744 8.82401 33.8744 7.82801Z" fill="url(#paint5_radial_13_77)"/>
<path d="M40.476 8.06801V4.42001H42.3C42.36 4.42001 42.396 4.38401 42.396 4.32401V3.95201C42.396 3.89201 42.36 3.84401 42.3 3.84401H40.464L40.428 2.38C40.416 2.32 40.38 2.28401 40.32 2.28401H39.936C39.876 2.28401 39.84 2.32 39.84 2.38V8.09201C39.84 9.42401 40.608 10.132 41.784 10.132C41.952 10.132 42.252 10.12 42.468 10.096C42.54 10.084 42.564 10.048 42.564 9.98801V9.60401C42.564 9.53201 42.528 9.49601 42.468 9.50801C42.24 9.52001 41.964 9.53201 41.808 9.53201C40.932 9.53201 40.476 8.98001 40.476 8.06801Z" fill="url(#paint6_radial_13_77)"/>
<path d="M48.2126 6.01601C48.2126 4.48001 47.1326 3.68801 45.7766 3.68801C44.4086 3.68801 43.3166 4.48001 43.3166 6.01601V7.91201C43.3166 9.34001 44.4926 10.132 45.7646 10.132C46.7846 10.132 47.5286 9.71201 48.0806 9.23201C48.1406 9.18401 48.1406 9.13601 48.0926 9.08801L47.8766 8.81201C47.8406 8.75201 47.7926 8.75201 47.7326 8.78801C47.2886 9.17201 46.6766 9.55601 45.7766 9.55601C44.7806 9.55601 43.9646 8.95601 43.9646 7.91201V7.24001H48.1046C48.1646 7.24001 48.2126 7.20401 48.2126 7.14401V6.01601ZM47.5886 6.01601V6.70001H43.9646V6.01601C43.9646 4.86401 44.6846 4.27601 45.7766 4.27601C46.8326 4.27601 47.5886 4.87601 47.5886 6.01601Z" fill="url(#paint7_radial_13_77)"/>
<path d="M53.9569 8.33201C53.9569 7.06001 52.7809 6.79601 51.7489 6.58001C50.8489 6.38801 49.9849 6.16001 49.9849 5.33201C49.9849 4.67201 50.6209 4.27601 51.5569 4.27601C52.2169 4.27601 52.8649 4.46801 53.3809 4.76801C53.4409 4.80401 53.5009 4.78001 53.5249 4.73201L53.7169 4.40801C53.7529 4.34801 53.7409 4.30001 53.6809 4.26401C53.0569 3.91601 52.4089 3.68801 51.5809 3.68801C50.3809 3.68801 49.3609 4.25201 49.3609 5.33201C49.3609 6.61601 50.6929 6.97601 51.6289 7.15601C52.4209 7.32401 53.3089 7.50401 53.3089 8.35601C53.3089 9.13601 52.6129 9.55601 51.6289 9.55601C50.8849 9.55601 50.2129 9.30401 49.6129 8.86001C49.5529 8.81201 49.5049 8.82401 49.4689 8.88401L49.2649 9.22001C49.2409 9.26801 49.2409 9.31601 49.3009 9.35201C49.9729 9.86801 50.7529 10.132 51.6169 10.132C53.0569 10.132 53.9569 9.43601 53.9569 8.33201Z" fill="url(#paint8_radial_13_77)"/>
<defs>
<radialGradient id="paint0_radial_13_77" cx="0" cy="0" r="1" gradientUnits="userSpaceOnUse" gradientTransform="translate(28 10) rotate(-90) scale(21 22.6639)">
<stop stop-color="#A5B4FC"/>
<stop offset="1" stop-color="#C084FC"/>
</radialGradient>
<radialGradient id="paint1_radial_13_77" cx="0" cy="0" r="1" gradientUnits="userSpaceOnUse" gradientTransform="translate(28 10) rotate(-90) scale(21 22.6639)">
<stop stop-color="#A5B4FC"/>
<stop offset="1" stop-color="#C084FC"/>
</radialGradient>
<radialGradient id="paint2_radial_13_77" cx="0" cy="0" r="1" gradientUnits="userSpaceOnUse" gradientTransform="translate(28 10) rotate(-90) scale(21 22.6639)">
<stop stop-color="#A5B4FC"/>
<stop offset="1" stop-color="#C084FC"/>
</radialGradient>
<radialGradient id="paint3_radial_13_77" cx="0" cy="0" r="1" gradientUnits="userSpaceOnUse" gradientTransform="translate(28 10) rotate(-90) scale(21 22.6639)">
<stop stop-color="#A5B4FC"/>
<stop offset="1" stop-color="#C084FC"/>
</radialGradient>
<radialGradient id="paint4_radial_13_77" cx="0" cy="0" r="1" gradientUnits="userSpaceOnUse" gradientTransform="translate(28 10) rotate(-90) scale(21 22.6639)">
<stop stop-color="#A5B4FC"/>
<stop offset="1" stop-color="#C084FC"/>
</radialGradient>
<radialGradient id="paint5_radial_13_77" cx="0" cy="0" r="1" gradientUnits="userSpaceOnUse" gradientTransform="translate(28 10) rotate(-90) scale(21 22.6639)">
<stop stop-color="#A5B4FC"/>
<stop offset="1" stop-color="#C084FC"/>
</radialGradient>
<radialGradient id="paint6_radial_13_77" cx="0" cy="0" r="1" gradientUnits="userSpaceOnUse" gradientTransform="translate(28 10) rotate(-90) scale(21 22.6639)">
<stop stop-color="#A5B4FC"/>
<stop offset="1" stop-color="#C084FC"/>
</radialGradient>
<radialGradient id="paint7_radial_13_77" cx="0" cy="0" r="1" gradientUnits="userSpaceOnUse" gradientTransform="translate(28 10) rotate(-90) scale(21 22.6639)">
<stop stop-color="#A5B4FC"/>
<stop offset="1" stop-color="#C084FC"/>
</radialGradient>
<radialGradient id="paint8_radial_13_77" cx="0" cy="0" r="1" gradientUnits="userSpaceOnUse" gradientTransform="translate(28 10) rotate(-90) scale(21 22.6639)">
<stop stop-color="#A5B4FC"/>
<stop offset="1" stop-color="#C084FC"/>
</radialGradient>
</defs>
</svg>
