<svg width="80" height="80" viewBox="0 0 80 80" fill="none" xmlns="http://www.w3.org/2000/svg">
<path d="M20 10C20 15.5228 15.5228 20 10 20C4.47715 20 0 15.5228 0 10C0 4.47715 4.47715 0 10 0C15.5228 0 20 4.47715 20 10Z" fill="#D9D9D9"/>
<path d="M20 10C20 15.5228 15.5228 20 10 20C4.47715 20 0 15.5228 0 10C0 4.47715 4.47715 0 10 0C15.5228 0 20 4.47715 20 10Z" fill="url(#paint0_linear_20_25)"/>
<path d="M80 10C80 15.5228 75.5228 20 70 20C64.4772 20 60 15.5228 60 10C60 4.47715 64.4772 0 70 0C75.5228 0 80 4.47715 80 10Z" fill="#D9D9D9"/>
<path d="M80 10C80 15.5228 75.5228 20 70 20C64.4772 20 60 15.5228 60 10C60 4.47715 64.4772 0 70 0C75.5228 0 80 4.47715 80 10Z" fill="url(#paint1_linear_20_25)"/>
<path d="M80 70C80 75.5228 75.5228 80 70 80C64.4772 80 60 75.5228 60 70C60 64.4772 64.4772 60 70 60C75.5228 60 80 64.4772 80 70Z" fill="#D9D9D9"/>
<path d="M80 70C80 75.5228 75.5228 80 70 80C64.4772 80 60 75.5228 60 70C60 64.4772 64.4772 60 70 60C75.5228 60 80 64.4772 80 70Z" fill="url(#paint2_linear_20_25)"/>
<path d="M20 70C20 75.5228 15.5228 80 10 80C4.47715 80 0 75.5228 0 70C0 64.4772 4.47715 60 10 60C15.5228 60 20 64.4772 20 70Z" fill="#D9D9D9"/>
<path d="M20 70C20 75.5228 15.5228 80 10 80C4.47715 80 0 75.5228 0 70C0 64.4772 4.47715 60 10 60C15.5228 60 20 64.4772 20 70Z" fill="url(#paint3_linear_20_25)"/>
<defs>
<linearGradient id="paint0_linear_20_25" x1="80" y1="80" x2="0" y2="0" gradientUnits="userSpaceOnUse">
<stop stop-color="#C084FC"/>
<stop offset="1" stop-color="#A5B4FC"/>
</linearGradient>
<linearGradient id="paint1_linear_20_25" x1="80" y1="80" x2="0" y2="0" gradientUnits="userSpaceOnUse">
<stop stop-color="#C084FC"/>
<stop offset="1" stop-color="#A5B4FC"/>
</linearGradient>
<linearGradient id="paint2_linear_20_25" x1="80" y1="80" x2="0" y2="0" gradientUnits="userSpaceOnUse">
<stop stop-color="#C084FC"/>
<stop offset="1" stop-color="#A5B4FC"/>
</linearGradient>
<linearGradient id="paint3_linear_20_25" x1="80" y1="80" x2="0" y2="0" gradientUnits="userSpaceOnUse">
<stop stop-color="#C084FC"/>
<stop offset="1" stop-color="#A5B4FC"/>
</linearGradient>
</defs>
</svg>
