<svg width="129" height="135" viewBox="0 0 129 135" fill="none" xmlns="http://www.w3.org/2000/svg">
<path d="M64.5022 43.4223C58.1357 43.4223 52.0298 45.9613 47.528 50.4808C43.0262 55.0004 40.4971 61.1301 40.4971 67.5217C40.4971 73.9132 43.0262 80.043 47.528 84.5625C52.0298 89.082 58.1357 91.6211 64.5022 91.6211C70.8688 91.6211 76.9746 89.082 81.4764 84.5625C85.9783 80.043 88.5074 73.9132 88.5074 67.5217C88.5074 61.1301 85.9783 55.0004 81.4764 50.4808C76.9746 45.9613 70.8688 43.4223 64.5022 43.4223ZM50.0991 67.5217C50.0991 63.6868 51.6166 60.0089 54.3177 57.2972C57.0188 54.5855 60.6823 53.062 64.5022 53.062C68.3222 53.062 71.9856 54.5855 74.6868 57.2972C77.3879 60.0089 78.9053 63.6868 78.9053 67.5217C78.9053 71.3566 77.3879 75.0345 74.6868 77.7462C71.9856 80.4579 68.3222 81.9813 64.5022 81.9813C60.6823 81.9813 57.0188 80.4579 54.3177 77.7462C51.6166 75.0345 50.0991 71.3566 50.0991 67.5217ZM49.331 133.207C54.3 134.398 59.3939 135 64.5022 135C69.6058 134.992 74.691 134.386 79.6543 133.193C81.0804 132.855 82.3675 132.083 83.3389 130.982C84.3103 129.88 84.9183 128.504 85.0794 127.042L86.2029 116.776C86.3113 115.656 86.6836 114.578 87.2891 113.631C87.8946 112.684 88.7159 111.896 89.685 111.331C90.6542 110.766 91.7435 110.44 92.8627 110.381C93.982 110.322 95.0991 110.532 96.1218 110.992L105.508 115.118C106.851 115.712 108.346 115.871 109.784 115.573C111.221 115.275 112.531 114.534 113.53 113.455C120.466 105.953 125.643 96.9899 128.682 87.2205C129.118 85.8075 129.105 84.2932 128.645 82.888C128.185 81.4827 127.3 80.2562 126.114 79.3786L117.813 73.2332C116.906 72.5699 116.169 71.7007 115.661 70.6964C115.153 69.6922 114.889 68.5816 114.89 67.4553C114.892 66.3291 115.158 65.2191 115.669 64.2162C116.179 63.2133 116.919 62.3458 117.827 61.6848L126.085 55.5636C127.278 54.6882 128.168 53.4599 128.631 52.0509C129.093 50.6419 129.104 49.123 128.663 47.7072C125.629 37.9343 120.449 28.9694 113.506 21.4726C112.503 20.395 111.191 19.6565 109.751 19.3587C108.312 19.0609 106.816 19.2185 105.469 19.8097L96.1266 23.9355C95.1026 24.3837 93.9879 24.5836 92.8727 24.5192C91.7574 24.4548 90.6729 24.1278 89.7068 23.5648C88.7407 23.0017 87.9202 22.2183 87.3115 21.278C86.7028 20.3376 86.323 19.2666 86.2029 18.1517L85.0698 7.93352C84.9114 6.45409 84.2949 5.06177 83.3071 3.95247C82.3193 2.84318 81.0098 2.07276 79.5631 1.74962C74.633 0.643686 69.6015 0.0573047 64.5502 0C59.469 0.0604027 54.4076 0.64671 49.4462 1.74962C47.9993 2.06723 46.6887 2.83409 45.7003 3.94145C44.7118 5.04881 44.0958 6.44046 43.9394 7.91906L42.8015 18.1468C42.6773 19.2635 42.2942 20.3354 41.6831 21.2768C41.072 22.2181 40.2498 23.0027 39.2824 23.5677C38.315 24.1328 37.2292 24.4625 36.1121 24.5306C34.9949 24.5986 33.8774 24.4031 32.849 23.9596L23.5062 19.829C22.1582 19.2542 20.6671 19.1077 19.2336 19.4093C17.8002 19.7109 16.4932 20.4461 15.4885 21.5159C8.54443 29.02 3.36073 37.9888 0.317206 47.765C-0.115972 49.1772 -0.100993 50.6897 0.36007 52.093C0.821132 53.4963 1.70546 54.721 2.89056 55.5973L11.1723 61.7282C12.0745 62.3946 12.8079 63.2647 13.3134 64.2682C13.8189 65.2716 14.0823 66.3803 14.0823 67.5048C14.0823 68.6293 13.8189 69.738 13.3134 70.7415C12.8079 71.7449 12.0745 72.615 11.1723 73.2814L2.89056 79.4268C1.70098 80.3049 0.814088 81.5338 0.353631 82.9422C-0.106826 84.3506 -0.117881 85.8682 0.322006 87.2832C3.36412 97.0658 8.54782 106.041 15.4933 113.552C16.1536 114.264 16.9541 114.831 17.8442 115.217C18.7343 115.603 19.6945 115.799 20.664 115.793C21.6386 115.793 22.6036 115.59 23.5014 115.2L32.8874 111.06C33.9112 110.616 35.0244 110.419 36.1376 110.485C37.2509 110.551 38.3331 110.879 39.2974 111.442C40.2616 112.004 41.0809 112.786 41.6895 113.724C42.2981 114.662 42.679 115.731 42.8015 116.844L43.9298 127.091C44.0937 128.545 44.7002 129.913 45.6668 131.008C46.6333 132.104 47.9129 132.873 49.331 133.212V133.207ZM75.7414 124.213C68.3337 125.739 60.6947 125.739 53.287 124.213L52.3508 115.827C51.8932 111.724 49.9444 107.935 46.8776 105.184C44.4765 103.062 41.5266 101.664 38.3682 101.152C35.2098 100.641 31.9717 101.036 29.0274 102.292L21.3169 105.666C16.343 99.9483 12.5154 93.3202 10.0441 86.1457L16.8808 81.0752C18.9929 79.5127 20.7099 77.4738 21.8931 75.1229C23.0764 72.772 23.6928 70.1749 23.6928 67.541C23.6928 64.907 23.0764 62.3099 21.8931 59.959C20.7099 57.6081 18.9929 55.5692 16.8808 54.0067L10.0585 48.9507C12.5327 41.7833 16.3601 35.1621 21.3313 29.4495L29.013 32.8234C31.1302 33.762 33.4199 34.2447 35.7344 34.2404C39.8561 34.2274 43.8292 32.6941 46.8982 29.9321C49.9672 27.1701 51.918 23.372 52.3796 19.2602L53.311 10.8399C57.027 10.1169 60.8006 9.73133 64.579 9.68314C68.3335 9.73133 72.0783 10.1169 75.7654 10.8399L76.6584 19.2265C77.1032 23.341 79.0474 27.1451 82.1172 29.9073C84.5198 32.0429 87.4777 33.4486 90.6458 33.9607C93.814 34.4727 97.0619 34.0699 100.011 32.7993L107.692 29.4254C112.671 35.1364 116.502 41.76 118.975 48.9314L112.143 53.973C110.02 55.5301 108.293 57.5682 107.102 59.9216C105.912 62.275 105.291 64.8773 105.291 67.5169C105.291 70.1564 105.912 72.7587 107.102 75.1121C108.293 77.4655 110.02 79.5036 112.143 81.0607L118.97 86.1216C116.495 93.2795 112.673 99.8934 107.712 105.604L100.03 102.23C97.6261 101.156 95.0032 100.668 92.3758 100.807C89.7483 100.945 87.1908 101.706 84.9123 103.027C82.6339 104.348 80.6991 106.192 79.2663 108.407C77.8334 110.622 76.943 113.147 76.668 115.773L75.7414 124.208V124.213Z" fill="black"/>
<path d="M64.5022 43.4223C58.1357 43.4223 52.0298 45.9613 47.528 50.4808C43.0262 55.0004 40.4971 61.1301 40.4971 67.5217C40.4971 73.9132 43.0262 80.043 47.528 84.5625C52.0298 89.082 58.1357 91.6211 64.5022 91.6211C70.8688 91.6211 76.9746 89.082 81.4764 84.5625C85.9783 80.043 88.5074 73.9132 88.5074 67.5217C88.5074 61.1301 85.9783 55.0004 81.4764 50.4808C76.9746 45.9613 70.8688 43.4223 64.5022 43.4223ZM50.0991 67.5217C50.0991 63.6868 51.6166 60.0089 54.3177 57.2972C57.0188 54.5855 60.6823 53.062 64.5022 53.062C68.3222 53.062 71.9856 54.5855 74.6868 57.2972C77.3879 60.0089 78.9053 63.6868 78.9053 67.5217C78.9053 71.3566 77.3879 75.0345 74.6868 77.7462C71.9856 80.4579 68.3222 81.9813 64.5022 81.9813C60.6823 81.9813 57.0188 80.4579 54.3177 77.7462C51.6166 75.0345 50.0991 71.3566 50.0991 67.5217ZM49.331 133.207C54.3 134.398 59.3939 135 64.5022 135C69.6058 134.992 74.691 134.386 79.6543 133.193C81.0804 132.855 82.3675 132.083 83.3389 130.982C84.3103 129.88 84.9183 128.504 85.0794 127.042L86.2029 116.776C86.3113 115.656 86.6836 114.578 87.2891 113.631C87.8946 112.684 88.7159 111.896 89.685 111.331C90.6542 110.766 91.7435 110.44 92.8627 110.381C93.982 110.322 95.0991 110.532 96.1218 110.992L105.508 115.118C106.851 115.712 108.346 115.871 109.784 115.573C111.221 115.275 112.531 114.534 113.53 113.455C120.466 105.953 125.643 96.9899 128.682 87.2205C129.118 85.8075 129.105 84.2932 128.645 82.888C128.185 81.4827 127.3 80.2562 126.114 79.3786L117.813 73.2332C116.906 72.5699 116.169 71.7007 115.661 70.6964C115.153 69.6922 114.889 68.5816 114.89 67.4553C114.892 66.3291 115.158 65.2191 115.669 64.2162C116.179 63.2133 116.919 62.3458 117.827 61.6848L126.085 55.5636C127.278 54.6882 128.168 53.4599 128.631 52.0509C129.093 50.6419 129.104 49.123 128.663 47.7072C125.629 37.9343 120.449 28.9694 113.506 21.4726C112.503 20.395 111.191 19.6565 109.751 19.3587C108.312 19.0609 106.816 19.2185 105.469 19.8097L96.1266 23.9355C95.1026 24.3837 93.9879 24.5836 92.8727 24.5192C91.7574 24.4548 90.6729 24.1278 89.7068 23.5648C88.7407 23.0017 87.9202 22.2183 87.3115 21.278C86.7028 20.3376 86.323 19.2666 86.2029 18.1517L85.0698 7.93352C84.9114 6.45409 84.2949 5.06177 83.3071 3.95247C82.3193 2.84318 81.0098 2.07276 79.5631 1.74962C74.633 0.643686 69.6015 0.0573047 64.5502 0C59.469 0.0604027 54.4076 0.64671 49.4462 1.74962C47.9993 2.06723 46.6887 2.83409 45.7003 3.94145C44.7118 5.04881 44.0958 6.44046 43.9394 7.91906L42.8015 18.1468C42.6773 19.2635 42.2942 20.3354 41.6831 21.2768C41.072 22.2181 40.2498 23.0027 39.2824 23.5677C38.315 24.1328 37.2292 24.4625 36.1121 24.5306C34.9949 24.5986 33.8774 24.4031 32.849 23.9596L23.5062 19.829C22.1582 19.2542 20.6671 19.1077 19.2336 19.4093C17.8002 19.7109 16.4932 20.4461 15.4885 21.5159C8.54443 29.02 3.36073 37.9888 0.317206 47.765C-0.115972 49.1772 -0.100993 50.6897 0.36007 52.093C0.821132 53.4963 1.70546 54.721 2.89056 55.5973L11.1723 61.7282C12.0745 62.3946 12.8079 63.2647 13.3134 64.2682C13.8189 65.2716 14.0823 66.3803 14.0823 67.5048C14.0823 68.6293 13.8189 69.738 13.3134 70.7415C12.8079 71.7449 12.0745 72.615 11.1723 73.2814L2.89056 79.4268C1.70098 80.3049 0.814088 81.5338 0.353631 82.9422C-0.106826 84.3506 -0.117881 85.8682 0.322006 87.2832C3.36412 97.0658 8.54782 106.041 15.4933 113.552C16.1536 114.264 16.9541 114.831 17.8442 115.217C18.7343 115.603 19.6945 115.799 20.664 115.793C21.6386 115.793 22.6036 115.59 23.5014 115.2L32.8874 111.06C33.9112 110.616 35.0244 110.419 36.1376 110.485C37.2509 110.551 38.3331 110.879 39.2974 111.442C40.2616 112.004 41.0809 112.786 41.6895 113.724C42.2981 114.662 42.679 115.731 42.8015 116.844L43.9298 127.091C44.0937 128.545 44.7002 129.913 45.6668 131.008C46.6333 132.104 47.9129 132.873 49.331 133.212V133.207ZM75.7414 124.213C68.3337 125.739 60.6947 125.739 53.287 124.213L52.3508 115.827C51.8932 111.724 49.9444 107.935 46.8776 105.184C44.4765 103.062 41.5266 101.664 38.3682 101.152C35.2098 100.641 31.9717 101.036 29.0274 102.292L21.3169 105.666C16.343 99.9483 12.5154 93.3202 10.0441 86.1457L16.8808 81.0752C18.9929 79.5127 20.7099 77.4738 21.8931 75.1229C23.0764 72.772 23.6928 70.1749 23.6928 67.541C23.6928 64.907 23.0764 62.3099 21.8931 59.959C20.7099 57.6081 18.9929 55.5692 16.8808 54.0067L10.0585 48.9507C12.5327 41.7833 16.3601 35.1621 21.3313 29.4495L29.013 32.8234C31.1302 33.762 33.4199 34.2447 35.7344 34.2404C39.8561 34.2274 43.8292 32.6941 46.8982 29.9321C49.9672 27.1701 51.918 23.372 52.3796 19.2602L53.311 10.8399C57.027 10.1169 60.8006 9.73133 64.579 9.68314C68.3335 9.73133 72.0783 10.1169 75.7654 10.8399L76.6584 19.2265C77.1032 23.341 79.0474 27.1451 82.1172 29.9073C84.5198 32.0429 87.4777 33.4486 90.6458 33.9607C93.814 34.4727 97.0619 34.0699 100.011 32.7993L107.692 29.4254C112.671 35.1364 116.502 41.76 118.975 48.9314L112.143 53.973C110.02 55.5301 108.293 57.5682 107.102 59.9216C105.912 62.275 105.291 64.8773 105.291 67.5169C105.291 70.1564 105.912 72.7587 107.102 75.1121C108.293 77.4655 110.02 79.5036 112.143 81.0607L118.97 86.1216C116.495 93.2795 112.673 99.8934 107.712 105.604L100.03 102.23C97.6261 101.156 95.0032 100.668 92.3758 100.807C89.7483 100.945 87.1908 101.706 84.9123 103.027C82.6339 104.348 80.6991 106.192 79.2663 108.407C77.8334 110.622 76.943 113.147 76.668 115.773L75.7414 124.208V124.213Z" fill="url(#paint0_linear_12_75)"/>
<defs>
<linearGradient id="paint0_linear_12_75" x1="129" y1="135" x2="-5.86061" y2="6.1332" gradientUnits="userSpaceOnUse">
<stop stop-color="#C084FC"/>
<stop offset="1" stop-color="#A5B4FC"/>
</linearGradient>
</defs>
</svg>
