<svg width="547" height="730" viewBox="0 0 547 730" fill="none" xmlns="http://www.w3.org/2000/svg">
<path fill-rule="evenodd" clip-rule="evenodd" d="M155.38 558.42L125.227 543.34L122.578 542.094L127.632 637H419.367L424.421 542.094L421.771 543.34L391.619 558.42C367.447 570.509 339.038 570.509 314.866 558.42C302.013 552.027 287.854 548.699 273.499 548.699C259.145 548.699 244.986 552.027 232.133 558.42C207.961 570.509 179.552 570.509 155.38 558.42Z" fill="#A5B4FC"/>
<path fill-rule="evenodd" clip-rule="evenodd" d="M12.2136 14.5303C20.7608 5.27078 32.8694 0 45.5477 0H501.399C514.078 0 526.044 5.27078 534.733 14.5303C543.423 23.7897 547.697 36.1832 546.842 48.8616L505.815 623.519C501.542 683.207 451.968 729.362 392.137 729.362H154.81C94.9791 729.362 45.4053 683.207 41.1317 623.519L0.105056 48.8616C-0.749665 36.1832 3.6664 23.7897 12.2136 14.5303ZM76.0005 71.3624L107.27 657.362H438.731L470 71.3624H76.0005Z" fill="black"/>
<path fill-rule="evenodd" clip-rule="evenodd" d="M12.2136 14.5303C20.7608 5.27078 32.8694 0 45.5477 0H501.399C514.078 0 526.044 5.27078 534.733 14.5303C543.423 23.7897 547.697 36.1832 546.842 48.8616L505.815 623.519C501.542 683.207 451.968 729.362 392.137 729.362H154.81C94.9791 729.362 45.4053 683.207 41.1317 623.519L0.105056 48.8616C-0.749665 36.1832 3.6664 23.7897 12.2136 14.5303ZM76.0005 71.3624L107.27 657.362H438.731L470 71.3624H76.0005Z" fill="url(#paint0_linear_9_59)"/>
<defs>
<linearGradient id="paint0_linear_9_59" x1="546.949" y1="729.362" x2="-153.213" y2="204.311" gradientUnits="userSpaceOnUse">
<stop stop-color="#C084FC"/>
<stop offset="1" stop-color="#A5B4FC"/>
</linearGradient>
</defs>
</svg>
