<svg width="547" height="730" viewBox="0 0 547 730" fill="none" xmlns="http://www.w3.org/2000/svg">
<path fill-rule="evenodd" clip-rule="evenodd" d="M155.38 188.42L125.227 173.34L115.5 159.5L139.079 637H408.462L437.5 159.5L421.771 173.34L391.618 188.42C367.446 200.509 339.038 200.509 314.866 188.42C302.013 182.027 287.853 178.699 273.499 178.699C259.144 178.699 244.985 182.027 232.132 188.42C207.96 200.509 179.552 200.509 155.38 188.42Z" fill="#A5B4FC"/>
<path fill-rule="evenodd" clip-rule="evenodd" d="M12.2131 14.5303C20.7603 5.27078 32.8689 0 45.5473 0H501.399C514.077 0 526.043 5.27078 534.733 14.5303C543.422 23.7897 547.696 36.1832 546.841 48.8616L505.815 623.519C501.541 683.207 451.967 729.362 392.137 729.362H154.809C94.9786 729.362 45.4048 683.207 41.1312 623.519L0.104568 48.8616C-0.750153 36.1832 3.66591 23.7897 12.2131 14.5303ZM76 71.3624L107.27 657.362H438.73L470 71.3624H76Z" fill="black"/>
<path fill-rule="evenodd" clip-rule="evenodd" d="M12.2131 14.5303C20.7603 5.27078 32.8689 0 45.5473 0H501.399C514.077 0 526.043 5.27078 534.733 14.5303C543.422 23.7897 547.696 36.1832 546.841 48.8616L505.815 623.519C501.541 683.207 451.967 729.362 392.137 729.362H154.809C94.9786 729.362 45.4048 683.207 41.1312 623.519L0.104568 48.8616C-0.750153 36.1832 3.66591 23.7897 12.2131 14.5303ZM76 71.3624L107.27 657.362H438.73L470 71.3624H76Z" fill="url(#paint0_linear_19_15)"/>
<defs>
<linearGradient id="paint0_linear_19_15" x1="546.949" y1="729.362" x2="-153.213" y2="204.311" gradientUnits="userSpaceOnUse">
<stop stop-color="#C084FC"/>
<stop offset="1" stop-color="#A5B4FC"/>
</linearGradient>
</defs>
</svg>
