<svg width="547" height="730" viewBox="0 0 547 730" fill="none" xmlns="http://www.w3.org/2000/svg">
<path d="M64.7127 108.355L106.969 132.47C140.843 151.802 180.654 151.802 214.529 132.47C232.541 122.246 252.383 116.925 272.5 116.925C292.616 116.925 312.459 122.246 330.47 132.47C364.345 151.802 404.156 151.802 438.031 132.47L480.287 108.355L484 106.362L457.588 672.362H87.4125L61 106.362L64.7127 108.355Z" fill="#5FA3E1"/>
<path fill-rule="evenodd" clip-rule="evenodd" d="M45.5473 0.362305C32.8689 0.362305 20.7603 5.63309 12.2131 14.8926C3.66591 24.1521 -0.750153 36.5455 0.104568 49.2239L41.1312 623.882C45.4048 683.57 94.9786 729.725 154.809 729.725H392.137C451.967 729.725 501.541 683.57 505.815 623.882L546.841 49.2239C547.696 36.5455 543.422 24.1521 534.733 14.8926C526.043 5.63309 514.077 0.362305 501.399 0.362305H45.5473ZM76 71.7247L107.27 657.725H438.73L470 71.7247H76Z" fill="black"/>
</svg>
