<svg width="547" height="730" viewBox="0 0 547 730" fill="none" xmlns="http://www.w3.org/2000/svg">
<path fill-rule="evenodd" clip-rule="evenodd" d="M106.969 569.241L64.7127 548.109L61 546.362L68.0824 679.362H476.918L484 546.362L480.287 548.109L438.031 569.241C404.156 586.182 364.345 586.182 330.47 569.241C312.459 560.281 292.616 555.619 272.5 555.619C252.383 555.619 232.541 560.281 214.529 569.241C180.654 586.182 140.843 586.182 106.969 569.241Z" fill="#5FA3E1"/>
<path fill-rule="evenodd" clip-rule="evenodd" d="M45.5473 0C32.8689 0 20.7603 5.27078 12.2131 14.5303C3.66591 23.7897 -0.750153 36.1832 0.104568 48.8616L41.1312 623.519C45.4048 683.207 94.9786 729.362 154.809 729.362H392.137C451.967 729.362 501.541 683.207 505.815 623.519L546.841 48.8616C547.696 36.1832 543.422 23.7897 534.733 14.5303C526.043 5.27078 514.077 0 501.399 0H45.5473ZM76 71.3624L107.27 657.362H438.73L470 71.3624H76Z" fill="black"/>
</svg>
