<svg width="547" height="730" viewBox="0 0 547 730" fill="none" xmlns="http://www.w3.org/2000/svg">
<path fill-rule="evenodd" clip-rule="evenodd" d="M106.969 457.464L64.7127 436.126L61 434.362L73.9207 679.362H471.079L484 434.362L480.287 436.126L438.031 457.464C404.156 474.57 364.345 474.57 330.47 457.464C312.459 448.417 292.616 443.709 272.5 443.709C252.383 443.709 232.541 448.417 214.529 457.464C180.654 474.57 140.843 474.57 106.969 457.464Z" fill="#5FA3E1"/>
<path fill-rule="evenodd" clip-rule="evenodd" d="M45.5473 0.362305C32.8689 0.362305 20.7603 5.63309 12.2131 14.8926C3.66591 24.1521 -0.750153 36.5455 0.104568 49.2239L41.1312 623.882C45.4048 683.57 94.9786 729.725 154.809 729.725H392.137C451.967 729.725 501.541 683.57 505.815 623.882L546.841 49.2239C547.696 36.5455 543.422 24.1521 534.733 14.8926C526.043 5.63309 514.077 0.362305 501.399 0.362305H45.5473ZM76 71.7247L107.27 657.725H438.73L470 71.7247H76Z" fill="black"/>
</svg>
